<svg xmlns="http://www.w3.org/2000/svg" fill="none" viewBox="-0.5 -0.5 16 16" stroke-linecap="round" stroke-linejoin="round" stroke="#000000" id="Eye--Streamline-Mynaui" height="16" width="16">
  <desc>
    Eye Streamline Icon: https://streamlinehq.com
  </desc>
  <path d="M1.59375 8.37875c-0.17 -0.233125 -0.255 -0.35000000000000003 -0.31375 -0.5750000000000001a1.5375 1.5375 0 0 1 0 -0.6068749999999999c0.05875 -0.225625 0.14375000000000002 -0.3425 0.31375 -0.5750000000000001C2.524375 5.34375 4.564375 3.125 7.5 3.125c2.935625 0 4.975625 2.21875 5.90625 3.4962500000000003 0.17 0.233125 0.255 0.35000000000000003 0.31375 0.5750000000000001a1.5375 1.5375 0 0 1 0 0.6068749999999999c-0.05875 0.225625 -0.14375000000000002 0.3425 -0.31375 0.5750000000000001C12.475624999999999 9.65625 10.435625 11.875 7.5 11.875c-2.935625 0 -4.975625 -2.21875 -5.90625 -3.4962500000000003" stroke-width="1"></path>
  <path d="M7.5 8.75a1.25 1.25 0 1 0 0 -2.5 1.25 1.25 0 0 0 0 2.5" stroke-width="1"></path>
</svg>