<svg xmlns="http://www.w3.org/2000/svg" fill="none" viewBox="-0.5 -0.5 16 16" stroke-linecap="round" stroke-linejoin="round" stroke="#000000" id="Eye-Slash--Streamline-Mynaui" height="16" width="16">
  <desc>
    Eye Slash Streamline Icon: https://streamlinehq.com
  </desc>
  <path d="M10.848125 4.1518749999999995 13.125 1.875m-2.276875 2.276875c1.1737499999999998 0.75 2.03875 1.75625 2.558125 2.469375 0.17 0.233125 0.255 0.35000000000000003 0.31375 0.5750000000000001a1.5375 1.5375 0 0 1 0 0.6068749999999999c-0.05875 0.225625 -0.14375000000000002 0.3425 -0.31375 0.5750000000000001C12.475624999999999 9.65625 10.435625 11.875 7.5 11.875c-1.296875 0 -2.41875 -0.433125 -3.348125 -1.026875M10.848125 4.1518749999999995l-2.464375 2.464375M1.875 13.125l2.276875 -2.276875m0 0 2.464375 -2.464375M2.4125 9.375a11.001875000000002 11.001875000000002 0 0 1 -0.819375 -0.9962500000000001c-0.17 -0.233125 -0.255 -0.35000000000000003 -0.31375 -0.5750000000000001a1.5375 1.5375 0 0 1 0 -0.6068749999999999c0.05875 -0.225625 0.14375000000000002 -0.3425 0.31375 -0.5750000000000001C2.524375 5.34375 4.564375 3.125 7.5 3.125c0.36874999999999997 0 0.7237499999999999 0.035 1.064375 0.09875m-0.18062499999999998 3.3925a1.25 1.25 0 0 1 -1.7674999999999998 1.7674999999999998m1.7674999999999998 -1.7674999999999998 -1.7674999999999998 1.7674999999999998" stroke-width="1"></path>
</svg>