<svg xmlns="http://www.w3.org/2000/svg" fill="none" viewBox="-0.5 -0.5 16 16" stroke-linecap="round" stroke-linejoin="round" stroke="#000000" id="Shield--Streamline-Mynaui" height="16" width="16">
  <desc>
    Shield Streamline Icon: https://streamlinehq.com
  </desc>
  <path d="M7.166875 13.0125a0.55 0.55 0 0 0 0.66625 0C8.855 12.245625 11.875 9.74125 11.875 6.885v-3.08125a0.32125000000000004 0.32125000000000004 0 0 0 -0.285625 -0.321875 7.53 7.53 0 0 1 -3.48875 -1.2787499999999998l-0.38125 -0.260625a0.3875 0.3875 0 0 0 -0.43875 0l-0.38125 0.260625a7.53 7.53 0 0 1 -3.48875 1.2787499999999998 0.32125000000000004 0.32125000000000004 0 0 0 -0.285625 0.321875v3.08125c0 2.85625 3.02 5.360625 4.041875 6.12625" stroke-width="1"></path>
</svg>